<mxfile host="app.diagrams.net" agent="Mozilla/5.0 (Macintosh; Intel Mac OS X 10.15; rv:128.0) Gecko/20100101 Firefox/128.0" version="24.7.6">
  <diagram name="Page-1" id="8OOmqV49meYUIze-WekJ">
    <mxGraphModel dx="2366" dy="688" grid="1" gridSize="10" guides="1" tooltips="1" connect="1" arrows="1" fold="1" page="1" pageScale="1" pageWidth="1100" pageHeight="850" math="0" shadow="0">
      <root>
        <mxCell id="0" />
        <mxCell id="1" parent="0" />
        <mxCell id="2" value="Non-Functional Requirements" style="whiteSpace=wrap;strokeWidth=2;" parent="1" vertex="1">
          <mxGeometry x="-120" y="120" width="239" height="40" as="geometry" />
        </mxCell>
        <mxCell id="3" value="Performance" style="whiteSpace=wrap;strokeWidth=2;" parent="1" vertex="1">
          <mxGeometry x="-660.5" y="280" width="120" height="40" as="geometry" />
        </mxCell>
        <mxCell id="4" value="Scalability" style="whiteSpace=wrap;strokeWidth=2;" parent="1" vertex="1">
          <mxGeometry x="-420.5" y="280" width="120" height="40" as="geometry" />
        </mxCell>
        <mxCell id="5" value="Reliability" style="whiteSpace=wrap;strokeWidth=2;" parent="1" vertex="1">
          <mxGeometry x="-180.5" y="280" width="120" height="40" as="geometry" />
        </mxCell>
        <mxCell id="6" value="Availability" style="whiteSpace=wrap;strokeWidth=2;" parent="1" vertex="1">
          <mxGeometry x="58.5" y="280" width="120" height="40" as="geometry" />
        </mxCell>
        <mxCell id="7" value="Maintainability" style="whiteSpace=wrap;strokeWidth=2;" parent="1" vertex="1">
          <mxGeometry x="299.5" y="280" width="120" height="40" as="geometry" />
        </mxCell>
        <mxCell id="8" value="Security" style="whiteSpace=wrap;strokeWidth=2;" parent="1" vertex="1">
          <mxGeometry x="539.5" y="280" width="120" height="40" as="geometry" />
        </mxCell>
        <mxCell id="9" value="Compliance" style="whiteSpace=wrap;strokeWidth=2;" parent="1" vertex="1">
          <mxGeometry x="779.5" y="280" width="120" height="40" as="geometry" />
        </mxCell>
        <mxCell id="10" value="Interoperability" style="whiteSpace=wrap;strokeWidth=2;" parent="1" vertex="1">
          <mxGeometry x="-900.5" y="280" width="120" height="40" as="geometry" />
        </mxCell>
      </root>
    </mxGraphModel>
  </diagram>
</mxfile>
